<svg width="292" height="49" viewBox="0 0 292 49" fill="none" xmlns="http://www.w3.org/2000/svg">
<path d="M26.827 7.04C26.907 7.49333 26.9604 7.81333 26.987 8C27.0404 8.16 27.067 8.38667 27.067 8.68C27.067 9.56 26.867 10.3867 26.467 11.16C26.0937 11.9067 25.5737 12.44 24.907 12.76C24.3737 12.04 23.7204 11.4267 22.947 10.92C22.1737 10.3867 21.3204 9.96 20.387 9.64C19.4804 9.29333 18.5337 9.04 17.547 8.88C16.5604 8.72 15.6004 8.64 14.667 8.64C13.7337 8.64 12.8537 8.72 12.027 8.88C11.227 9.01333 10.507 9.21333 9.86703 9.48C9.2537 9.72 8.76037 10.0267 8.38703 10.4C8.04037 10.7733 7.86703 11.2 7.86703 11.68C7.94703 12.2667 8.30703 12.8667 8.94703 13.48C9.58703 14.0667 10.3737 14.6533 11.307 15.24C12.2404 15.8 13.267 16.36 14.387 16.92C15.5337 17.48 16.6537 18.0133 17.747 18.52C19.107 19.16 20.2804 19.76 21.267 20.32C22.2537 20.8533 23.067 21.4533 23.707 22.12C24.347 22.76 24.827 23.4933 25.147 24.32C25.467 25.1467 25.627 26.1467 25.627 27.32C25.627 28.68 25.4004 29.96 24.947 31.16C24.4937 32.3333 23.827 33.36 22.947 34.24C22.0937 35.12 21.0537 35.8 19.827 36.28C18.6004 36.7867 17.227 37.04 15.707 37.04C14.2137 37.04 12.6004 36.8133 10.867 36.36C9.1337 35.9067 7.50703 35.28 5.98703 34.48C4.4937 33.7067 3.24037 32.8133 2.22703 31.8C1.24036 30.76 0.747031 29.6667 0.747031 28.52C0.747031 27.9867 0.893698 27.3067 1.18703 26.48C1.50703 25.6533 2.06703 24.7867 2.86703 23.88C2.94703 24.68 3.3737 25.6267 4.14703 26.72C4.94703 27.8133 6.1337 28.8267 7.70703 29.76C9.1737 30.6133 10.6804 31.24 12.227 31.64C13.8004 32.0133 15.267 32.2 16.627 32.2C18.1204 32.2 19.3337 32.0133 20.267 31.64C21.2004 31.2667 21.9337 30.8267 22.467 30.32C23.0004 29.7867 23.3737 29.2533 23.587 28.72C23.8004 28.1867 23.9204 27.76 23.947 27.44C23.9204 26.9067 23.667 26.4 23.187 25.92C22.7337 25.4133 22.107 24.9333 21.307 24.48C20.5337 24 19.627 23.52 18.587 23.04C17.547 22.56 16.467 22.08 15.347 21.6C13.667 20.8533 12.2137 20.16 10.987 19.52C9.78703 18.8533 8.78703 18.1867 7.98703 17.52C7.2137 16.8267 6.64037 16.1067 6.26703 15.36C5.92036 14.6133 5.74703 13.76 5.74703 12.8C5.74703 11.3067 6.20037 9.89333 7.10703 8.56C8.0137 7.22666 9.32036 6.21333 11.027 5.52C11.8804 5.14667 12.787 4.88 13.747 4.72C14.7337 4.56 15.6937 4.48 16.627 4.48C18.387 4.48 20.107 4.72 21.787 5.2C23.467 5.68 25.147 6.29333 26.827 7.04ZM33.5977 35.4C32.0777 35.24 30.8643 34.5733 29.9577 33.4C29.051 32.2267 28.5977 30.7333 28.5977 28.92C28.5977 27.8533 28.7577 26.7467 29.0777 25.6C29.3977 24.4533 29.851 23.3467 30.4377 22.28C31.0243 21.1867 31.7177 20.16 32.5177 19.2C33.3177 18.24 34.1843 17.4133 35.1177 16.72C36.5843 15.6267 37.9577 15.08 39.2377 15.08C40.091 15.5333 40.931 16.48 41.7577 17.92C41.891 17.92 42.011 17.92 42.1177 17.92C42.2243 17.8933 42.3443 17.88 42.4777 17.88C43.891 17.88 44.5977 19.1333 44.5977 21.64C44.5977 23.32 44.3177 24.92 43.7577 26.44C43.2243 27.9333 42.4643 29.2933 41.4777 30.52C40.5177 31.7467 39.3577 32.7867 37.9977 33.64C36.6643 34.4667 35.1977 35.0533 33.5977 35.4ZM35.6377 22.8C35.1843 23.4133 34.7577 24.08 34.3577 24.8C33.9577 25.52 33.611 26.2533 33.3177 27C33.0243 27.72 32.7977 28.4267 32.6377 29.12C32.4777 29.7867 32.3977 30.3867 32.3977 30.92C32.3977 31.56 32.5043 32.1733 32.7177 32.76C32.931 33.3467 33.171 33.68 33.4377 33.76C34.6377 33.4933 35.731 33 36.7177 32.28C37.731 31.5333 38.5977 30.6133 39.3177 29.52C40.0643 28.4267 40.6377 27.1867 41.0377 25.8C41.4643 24.4133 41.6777 22.9333 41.6777 21.36C41.6777 20.6667 41.6377 20.12 41.5577 19.72C41.4777 19.32 41.3443 18.9733 41.1577 18.68C39.9843 19.0267 38.931 19.5867 37.9977 20.36C37.091 21.1333 36.3043 21.9467 35.6377 22.8ZM57.8139 33.12C57.3072 32.6933 56.9606 32.16 56.7739 31.52C56.6139 30.88 56.5339 30.3333 56.5339 29.88C56.5339 29.32 56.6006 28.84 56.7339 28.44C56.6272 28.44 56.3872 28.6533 56.0139 29.08C55.6406 29.5067 55.2272 30.0133 54.7739 30.6C54.3472 31.1867 53.9206 31.76 53.4939 32.32C53.0672 32.88 52.7472 33.2933 52.5339 33.56C52.1872 33.9333 51.8539 34.2267 51.5339 34.44C51.2406 34.6533 51.0006 34.7733 50.8139 34.8C50.3872 34.7733 49.9339 34.68 49.4539 34.52C49.0006 34.3867 48.5606 34.1867 48.1339 33.92C47.7339 33.6533 47.3739 33.3333 47.0539 32.96C46.7606 32.5867 46.5606 32.16 46.4539 31.68C46.4539 30.9333 46.4672 30.32 46.4939 29.84C46.5472 29.36 46.6406 28.84 46.7739 28.28C47.0139 27.2667 47.3606 26.12 47.8139 24.84C48.2939 23.56 48.8406 22.3067 49.4539 21.08C50.0672 19.8267 50.7472 18.6667 51.4939 17.6C52.2672 16.5067 53.0806 15.6533 53.9339 15.04C54.1739 15.04 54.4539 15.0667 54.7739 15.12C55.0939 15.1467 55.4139 15.2133 55.7339 15.32C56.0806 15.4267 56.4006 15.56 56.6939 15.72C57.0139 15.8533 57.2806 16.04 57.4939 16.28C57.2539 16.5467 56.6406 17.44 55.6539 18.96C54.6939 20.48 53.6139 22.6667 52.4139 25.52C52.2806 25.8133 52.1206 26.24 51.9339 26.8C51.7472 27.36 51.5606 27.9467 51.3739 28.56C51.1872 29.1733 51.0272 29.7733 50.8939 30.36C50.7872 30.9467 50.7339 31.4133 50.7339 31.76C50.7339 31.9733 50.7606 32.1333 50.8139 32.24C50.8939 32.3467 50.9606 32.4267 51.0139 32.48C51.4139 32.32 51.9206 31.88 52.5339 31.16C53.1472 30.44 54.0006 29.3333 55.0939 27.84C55.3606 27.4667 55.6672 27.04 56.0139 26.56C56.3872 26.08 56.7606 25.5733 57.1339 25.04C57.5072 24.48 57.8539 23.9067 58.1739 23.32C58.5206 22.7333 58.8006 22.1467 59.0139 21.56C59.1206 21.24 59.2539 20.8667 59.4139 20.44C59.6006 19.9867 59.8139 19.52 60.0539 19.04C60.3206 18.56 60.6139 18.08 60.9339 17.6C61.2806 17.0933 61.6806 16.6267 62.1339 16.2C62.4806 16.2 62.8539 16.24 63.2539 16.32C63.6539 16.4 64.0272 16.5067 64.3739 16.64C64.7472 16.7467 65.0672 16.88 65.3339 17.04C65.6006 17.1733 65.8006 17.32 65.9339 17.48C65.4539 18.6533 64.9206 19.8133 64.3339 20.96C63.7472 22.1067 63.2006 23.24 62.6939 24.36C62.1872 25.4533 61.7606 26.5467 61.4139 27.64C61.0672 28.7333 60.8939 29.8 60.8939 30.84C60.8939 31.4 60.9339 31.8933 61.0139 32.32C61.1206 32.72 61.2272 33.0667 61.3339 33.36C61.4406 33.6267 61.5339 33.8533 61.6139 34.04C61.7206 34.2267 61.7739 34.3867 61.7739 34.52C61.7739 34.5467 61.7472 34.5867 61.6939 34.64C61.6672 34.6667 61.6406 34.68 61.6139 34.68C61.4272 34.68 61.1872 34.64 60.8939 34.56C60.6006 34.48 60.2672 34.36 59.8939 34.2C59.5472 34.0667 59.1872 33.9067 58.8139 33.72C58.4672 33.5333 58.1339 33.3333 57.8139 33.12ZM73.5795 14.6C74.2729 14.8133 74.9262 15.2933 75.5395 16.04C76.1529 16.76 76.6062 17.56 76.8995 18.44C76.6062 19.16 76.1529 20.0267 75.5395 21.04C74.9262 22.0533 74.3129 23.0933 73.6995 24.16C73.0862 25.2 72.5262 26.2 72.0195 27.16C71.5395 28.0933 71.2595 28.8667 71.1795 29.48C71.6062 29.0267 72.0729 28.5067 72.5795 27.92C73.1129 27.3067 73.6195 26.7067 74.0995 26.12C74.6062 25.5067 75.0729 24.96 75.4995 24.48C75.9262 23.9733 76.2595 23.6 76.4995 23.36C77.0062 22.8267 77.6062 22.2133 78.2995 21.52C78.9929 20.8 79.7129 20.1333 80.4595 19.52C81.2329 18.88 82.0062 18.3467 82.7795 17.92C83.5529 17.4667 84.2595 17.24 84.8995 17.24C85.5929 17.24 86.1662 17.48 86.6195 17.96C87.0995 18.4133 87.4729 18.8933 87.7395 19.4C87.7395 19.4533 87.6329 19.5333 87.4195 19.64C87.2329 19.72 86.9529 19.9733 86.5795 20.4C86.2062 20.88 85.7795 21.5467 85.2995 22.4C84.8462 23.2267 84.3929 24.1333 83.9395 25.12C83.5129 26.08 83.1529 27.0667 82.8595 28.08C82.5662 29.0933 82.4195 30.0133 82.4195 30.84C82.4195 31.5067 82.4995 31.9333 82.6595 32.12C82.8462 32.3067 83.0995 32.4 83.4195 32.4C83.7129 32.4 84.0195 32.3333 84.3395 32.2C84.6595 32.0667 84.9129 32 85.0995 32C85.2062 32.0533 85.2862 32.1733 85.3395 32.36C85.4195 32.52 85.4595 32.6667 85.4595 32.8C85.2462 32.9867 84.9929 33.1733 84.6995 33.36C84.4062 33.5467 84.0995 33.72 83.7795 33.88C83.4595 34.04 83.1395 34.1733 82.8195 34.28C82.5262 34.3867 82.2595 34.44 82.0195 34.44C81.2462 34.44 80.6062 34.32 80.0995 34.08C79.6195 33.8667 79.2329 33.5733 78.9395 33.2C78.6729 32.8267 78.4862 32.3867 78.3795 31.88C78.2729 31.3467 78.2195 30.7867 78.2195 30.2C78.2195 29.88 78.2462 29.52 78.2995 29.12C78.3529 28.72 78.4595 28.2533 78.6195 27.72C78.7795 27.16 79.0062 26.5067 79.2995 25.76C79.5929 24.9867 79.9662 24.0667 80.4195 23C80.3662 23 80.0062 23.1867 79.3395 23.56C78.6729 23.9333 77.9529 24.5067 77.1795 25.28C75.9262 26.48 74.7929 27.6667 73.7795 28.84C72.7929 30.0133 71.7795 31.32 70.7395 32.76C70.1529 33.5867 69.6329 34.28 69.1795 34.84C68.7529 35.4267 68.3795 35.8133 68.0595 36C67.4995 35.68 67.0862 35.2267 66.8195 34.64C66.5529 34.08 66.3529 33.4933 66.2195 32.88C66.2195 32.3733 66.2862 31.7333 66.4195 30.96C66.5795 30.1867 66.7795 29.3333 67.0195 28.4C67.2862 27.44 67.6062 26.44 67.9795 25.4C68.3529 24.36 68.7662 23.32 69.2195 22.28C70.2329 19.9333 71.1529 18.0933 71.9795 16.76C72.8329 15.4267 73.3662 14.7067 73.5795 14.6ZM97.8211 15.32C98.3544 15.32 98.9678 15.48 99.6611 15.8C100.354 16.12 100.968 16.5333 101.501 17.04C101.368 15.9733 101.194 14.9733 100.981 14.04C100.794 13.08 100.501 12.0933 100.101 11.08C99.7278 10.0667 99.2211 8.96 98.5811 7.76C97.9411 6.56 97.1411 5.18666 96.1811 3.64C96.2611 3.4 96.4344 3.12 96.7011 2.8C96.9944 2.48 97.3144 2.18666 97.6611 1.92C98.0344 1.62667 98.4078 1.37333 98.7811 1.16C99.1811 0.946665 99.5544 0.813331 99.9011 0.759999C100.648 1.58667 101.354 2.62667 102.021 3.88C102.688 5.10667 103.274 6.44 103.781 7.88C104.288 9.29333 104.674 10.76 104.941 12.28C105.234 13.8 105.381 15.2533 105.381 16.64C105.381 18.0267 105.221 19.4533 104.901 20.92C104.608 22.3867 104.181 23.8267 103.621 25.24C103.088 26.6267 102.461 27.9467 101.741 29.2C101.021 30.4533 100.234 31.5733 99.3811 32.56C98.5544 33.5467 97.6878 34.3467 96.7811 34.96C95.8744 35.6 94.9678 36 94.0611 36.16C92.2211 35.9467 90.8078 35.3467 89.8211 34.36C88.8611 33.4 88.3811 32.0667 88.3811 30.36C88.3811 29.4533 88.5144 28.4667 88.7811 27.4C89.0744 26.3333 89.4478 25.28 89.9011 24.24C90.3811 23.1733 90.9278 22.1467 91.5411 21.16C92.1811 20.1467 92.8478 19.24 93.5411 18.44C94.2611 17.64 94.9811 16.96 95.7011 16.4C96.4211 15.84 97.1278 15.48 97.8211 15.32ZM93.7411 34.56C94.6744 34.24 95.6078 33.5333 96.5411 32.44C97.4744 31.3467 98.3144 30.0667 99.0611 28.6C99.8078 27.1067 100.408 25.52 100.861 23.84C101.341 22.1333 101.581 20.4933 101.581 18.92C101.581 18.4667 101.581 18.1867 101.581 18.08C101.581 17.9733 101.568 17.8667 101.541 17.76C100.901 18.0267 100.221 18.48 99.5011 19.12C98.7811 19.76 98.0611 20.5067 97.3411 21.36C96.6211 22.1867 95.9411 23.0933 95.3011 24.08C94.6611 25.0667 94.0878 26.0533 93.5811 27.04C93.0744 28.0267 92.6744 28.9733 92.3811 29.88C92.0878 30.7867 91.9411 31.5867 91.9411 32.28C91.9411 33.6133 92.5411 34.3733 93.7411 34.56ZM121.017 26.56C120.19 26.56 119.524 26.3333 119.017 25.88C118.537 25.4 118.297 24.7467 118.297 23.92C118.297 23.7867 118.324 23.5867 118.377 23.32C118.43 23.0533 118.484 22.8533 118.537 22.72C118.99 22.8 119.417 22.8533 119.817 22.88C120.217 22.88 120.737 22.88 121.377 22.88C122.737 22.88 124.004 22.84 125.177 22.76C126.377 22.68 127.457 22.5867 128.417 22.48C129.377 22.3733 130.204 22.28 130.897 22.2C131.59 22.12 132.124 22.08 132.497 22.08C133.004 22.08 133.444 22.3867 133.817 23C134.217 23.6133 134.51 24.4933 134.697 25.64C134.03 25.56 133.484 25.5067 133.057 25.48C132.63 25.4533 132.257 25.44 131.937 25.44C130.79 25.44 129.724 25.5067 128.737 25.64C127.75 25.7467 126.817 25.8667 125.937 26C125.057 26.1333 124.217 26.2667 123.417 26.4C122.617 26.5067 121.817 26.56 121.017 26.56ZM174.363 7.04C174.443 7.49333 174.496 7.81333 174.523 8C174.576 8.16 174.603 8.38667 174.603 8.68C174.603 9.56 174.403 10.3867 174.003 11.16C173.63 11.9067 173.11 12.44 172.443 12.76C171.91 12.04 171.256 11.4267 170.483 10.92C169.71 10.3867 168.856 9.96 167.923 9.64C167.016 9.29333 166.07 9.04 165.083 8.88C164.096 8.72 163.136 8.64 162.203 8.64C161.27 8.64 160.39 8.72 159.563 8.88C158.763 9.01333 158.043 9.21333 157.403 9.48C156.79 9.72 156.296 10.0267 155.923 10.4C155.576 10.7733 155.403 11.2 155.403 11.68C155.483 12.2667 155.843 12.8667 156.483 13.48C157.123 14.0667 157.91 14.6533 158.843 15.24C159.776 15.8 160.803 16.36 161.923 16.92C163.07 17.48 164.19 18.0133 165.283 18.52C166.643 19.16 167.816 19.76 168.803 20.32C169.79 20.8533 170.603 21.4533 171.243 22.12C171.883 22.76 172.363 23.4933 172.683 24.32C173.003 25.1467 173.163 26.1467 173.163 27.32C173.163 28.68 172.936 29.96 172.483 31.16C172.03 32.3333 171.363 33.36 170.483 34.24C169.63 35.12 168.59 35.8 167.363 36.28C166.136 36.7867 164.763 37.04 163.243 37.04C161.75 37.04 160.136 36.8133 158.403 36.36C156.67 35.9067 155.043 35.28 153.523 34.48C152.03 33.7067 150.776 32.8133 149.763 31.8C148.776 30.76 148.283 29.6667 148.283 28.52C148.283 27.9867 148.43 27.3067 148.723 26.48C149.043 25.6533 149.603 24.7867 150.403 23.88C150.483 24.68 150.91 25.6267 151.683 26.72C152.483 27.8133 153.67 28.8267 155.243 29.76C156.71 30.6133 158.216 31.24 159.763 31.64C161.336 32.0133 162.803 32.2 164.163 32.2C165.656 32.2 166.87 32.0133 167.803 31.64C168.736 31.2667 169.47 30.8267 170.003 30.32C170.536 29.7867 170.91 29.2533 171.123 28.72C171.336 28.1867 171.456 27.76 171.483 27.44C171.456 26.9067 171.203 26.4 170.723 25.92C170.27 25.4133 169.643 24.9333 168.843 24.48C168.07 24 167.163 23.52 166.123 23.04C165.083 22.56 164.003 22.08 162.883 21.6C161.203 20.8533 159.75 20.16 158.523 19.52C157.323 18.8533 156.323 18.1867 155.523 17.52C154.75 16.8267 154.176 16.1067 153.803 15.36C153.456 14.6133 153.283 13.76 153.283 12.8C153.283 11.3067 153.736 9.89333 154.643 8.56C155.55 7.22666 156.856 6.21333 158.563 5.52C159.416 5.14667 160.323 4.88 161.283 4.72C162.27 4.56 163.23 4.48 164.163 4.48C165.923 4.48 167.643 4.72 169.323 5.2C171.003 5.68 172.683 6.29333 174.363 7.04ZM176.458 26.96C176.458 25.44 176.765 23.9733 177.378 22.56C178.018 21.12 178.845 19.8533 179.858 18.76C180.898 17.64 182.072 16.7467 183.378 16.08C184.712 15.3867 186.085 15.04 187.498 15.04C188.885 15.04 189.952 15.3867 190.698 16.08C191.445 16.7733 191.818 17.76 191.818 19.04C191.818 19.6533 191.725 20.2533 191.538 20.84C191.378 21.4 191.152 21.9067 190.858 22.36C190.592 22.8133 190.272 23.1867 189.898 23.48C189.525 23.7467 189.152 23.88 188.778 23.88C188.458 23.88 188.125 23.7867 187.778 23.6C187.458 23.3867 187.192 23.12 186.978 22.8C188.765 21.1733 189.658 19.6933 189.658 18.36C189.658 17.5867 189.352 17.2 188.738 17.2C188.205 17.2 187.538 17.4533 186.738 17.96C185.938 18.4667 185.165 19.1333 184.418 19.96C183.272 21.24 182.392 22.6667 181.778 24.24C181.192 25.7867 180.898 27.4133 180.898 29.12C180.898 31.28 181.378 32.5733 182.338 33C182.738 32.9467 183.205 32.8267 183.738 32.64C184.272 32.4533 184.845 32.2133 185.458 31.92C186.072 31.6 186.698 31.24 187.338 30.84C188.005 30.44 188.645 30.0133 189.258 29.56C189.365 29.64 189.458 29.76 189.538 29.92C189.618 30.08 189.658 30.2267 189.658 30.36C189.205 30.92 188.685 31.4667 188.098 32C187.512 32.5333 186.898 33.0267 186.258 33.48C185.618 33.9067 184.992 34.2667 184.378 34.56C183.792 34.88 183.272 35.08 182.818 35.16C181.938 35.08 181.112 34.8 180.338 34.32C179.565 33.8667 178.885 33.2667 178.298 32.52C177.738 31.7733 177.285 30.92 176.938 29.96C176.618 29 176.458 28 176.458 26.96ZM204.295 33.12C203.788 32.6933 203.442 32.16 203.255 31.52C203.095 30.88 203.015 30.3333 203.015 29.88C203.015 29.32 203.082 28.84 203.215 28.44C203.108 28.44 202.868 28.6533 202.495 29.08C202.122 29.5067 201.708 30.0133 201.255 30.6C200.828 31.1867 200.402 31.76 199.975 32.32C199.548 32.88 199.228 33.2933 199.015 33.56C198.668 33.9333 198.335 34.2267 198.015 34.44C197.722 34.6533 197.482 34.7733 197.295 34.8C196.868 34.7733 196.415 34.68 195.935 34.52C195.482 34.3867 195.042 34.1867 194.615 33.92C194.215 33.6533 193.855 33.3333 193.535 32.96C193.242 32.5867 193.042 32.16 192.935 31.68C192.935 30.9333 192.948 30.32 192.975 29.84C193.028 29.36 193.122 28.84 193.255 28.28C193.495 27.2667 193.842 26.12 194.295 24.84C194.775 23.56 195.322 22.3067 195.935 21.08C196.548 19.8267 197.228 18.6667 197.975 17.6C198.748 16.5067 199.562 15.6533 200.415 15.04C200.655 15.04 200.935 15.0667 201.255 15.12C201.575 15.1467 201.895 15.2133 202.215 15.32C202.562 15.4267 202.882 15.56 203.175 15.72C203.495 15.8533 203.762 16.04 203.975 16.28C203.735 16.5467 203.122 17.44 202.135 18.96C201.175 20.48 200.095 22.6667 198.895 25.52C198.762 25.8133 198.602 26.24 198.415 26.8C198.228 27.36 198.042 27.9467 197.855 28.56C197.668 29.1733 197.508 29.7733 197.375 30.36C197.268 30.9467 197.215 31.4133 197.215 31.76C197.215 31.9733 197.242 32.1333 197.295 32.24C197.375 32.3467 197.442 32.4267 197.495 32.48C197.895 32.32 198.402 31.88 199.015 31.16C199.628 30.44 200.482 29.3333 201.575 27.84C201.842 27.4667 202.148 27.04 202.495 26.56C202.868 26.08 203.242 25.5733 203.615 25.04C203.988 24.48 204.335 23.9067 204.655 23.32C205.002 22.7333 205.282 22.1467 205.495 21.56C205.602 21.24 205.735 20.8667 205.895 20.44C206.082 19.9867 206.295 19.52 206.535 19.04C206.802 18.56 207.095 18.08 207.415 17.6C207.762 17.0933 208.162 16.6267 208.615 16.2C208.962 16.2 209.335 16.24 209.735 16.32C210.135 16.4 210.508 16.5067 210.855 16.64C211.228 16.7467 211.548 16.88 211.815 17.04C212.082 17.1733 212.282 17.32 212.415 17.48C211.935 18.6533 211.402 19.8133 210.815 20.96C210.228 22.1067 209.682 23.24 209.175 24.36C208.668 25.4533 208.242 26.5467 207.895 27.64C207.548 28.7333 207.375 29.8 207.375 30.84C207.375 31.4 207.415 31.8933 207.495 32.32C207.602 32.72 207.708 33.0667 207.815 33.36C207.922 33.6267 208.015 33.8533 208.095 34.04C208.202 34.2267 208.255 34.3867 208.255 34.52C208.255 34.5467 208.228 34.5867 208.175 34.64C208.148 34.6667 208.122 34.68 208.095 34.68C207.908 34.68 207.668 34.64 207.375 34.56C207.082 34.48 206.748 34.36 206.375 34.2C206.028 34.0667 205.668 33.9067 205.295 33.72C204.948 33.5333 204.615 33.3333 204.295 33.12ZM213.541 31.44C213.541 30.2667 213.821 28.6267 214.381 26.52C214.941 24.3867 215.727 21.9067 216.741 19.08C218.394 14.5733 219.941 10.8267 221.381 7.84C222.847 4.82667 224.274 2.48 225.661 0.799998C225.981 0.853331 226.367 0.986664 226.821 1.2C227.301 1.41333 227.767 1.65333 228.221 1.92C228.674 2.16 229.074 2.41333 229.421 2.68C229.794 2.94666 230.034 3.16 230.141 3.32C228.061 5.77333 226.234 8.41333 224.661 11.24C223.087 14.0667 221.647 17.3067 220.341 20.96C219.221 24.1067 218.367 26.9467 217.781 29.48C217.194 31.9867 216.901 34.08 216.901 35.76C216.901 36.2133 216.901 36.4933 216.901 36.6C216.901 36.7067 216.914 36.8133 216.941 36.92C216.567 36.8667 216.247 36.7733 215.981 36.64C215.714 36.5067 215.541 36.3467 215.461 36.16C215.407 36.0267 215.261 35.8267 215.021 35.56C214.781 35.32 214.567 35.1333 214.381 35C214.141 34.84 213.941 34.4267 213.781 33.76C213.621 33.0667 213.541 32.2933 213.541 31.44ZM220.514 47.24C220.141 47.1333 219.927 46.7333 219.874 46.04C219.767 45.6933 219.687 45.28 219.634 44.8C219.607 44.32 219.594 43.7733 219.594 43.16C219.594 42.6 219.687 41.8267 219.874 40.84C220.061 39.88 220.314 38.7867 220.634 37.56C220.981 36.3333 221.394 35.0133 221.874 33.6C222.354 32.16 222.887 30.7067 223.474 29.24C224.194 27.4 224.821 25.8133 225.354 24.48C225.887 23.12 226.327 21.9467 226.674 20.96C227.047 19.9733 227.341 19.16 227.554 18.52C227.794 17.88 227.981 17.3333 228.114 16.88C228.221 16.56 228.381 16.1733 228.594 15.72C228.807 15.2667 229.047 14.8133 229.314 14.36C229.607 13.88 229.901 13.44 230.194 13.04C230.487 12.6133 230.754 12.2933 230.994 12.08C231.927 12.2133 232.807 12.4533 233.634 12.8C234.461 13.1467 234.967 13.48 235.154 13.8C234.781 14.1467 234.354 14.6933 233.874 15.44C233.394 16.16 232.927 16.96 232.474 17.84C232.021 18.6933 231.607 19.5733 231.234 20.48C230.861 21.3867 230.581 22.1867 230.394 22.88C230.661 22.4267 231.007 21.9333 231.434 21.4C231.861 20.8667 232.514 20.1333 233.394 19.2C234.381 18.1867 235.301 17.4133 236.154 16.88C237.034 16.32 237.794 16.04 238.434 16.04C239.447 16.04 240.274 16.32 240.914 16.88C241.581 17.44 241.914 18.16 241.914 19.04C241.914 20.96 241.594 22.8667 240.954 24.76C240.314 26.6267 239.394 28.32 238.194 29.84C237.741 30.4267 237.207 30.9867 236.594 31.52C235.981 32.0533 235.341 32.5333 234.674 32.96C234.007 33.36 233.354 33.68 232.714 33.92C232.074 34.16 231.501 34.28 230.994 34.28C230.514 34.28 230.087 34.1867 229.714 34C229.367 33.7867 229.127 33.5333 228.994 33.24C230.034 32.6267 231.047 31.7733 232.034 30.68C233.021 29.5867 233.927 28.3333 234.754 26.92C235.607 25.48 236.341 23.9333 236.954 22.28C237.594 20.6267 238.074 18.9467 238.394 17.24C237.381 17.7733 236.461 18.36 235.634 19C234.834 19.6133 234.034 20.4267 233.234 21.44C232.274 22.6133 231.514 23.56 230.954 24.28C230.394 25 229.927 25.6133 229.554 26.12C229.207 26.6267 228.914 27.1067 228.674 27.56C228.461 27.9867 228.221 28.52 227.954 29.16C227.581 30.0133 227.141 31.1467 226.634 32.56C226.154 33.9467 225.647 35.5067 225.114 37.24C224.607 38.9733 224.087 40.8133 223.554 42.76C223.047 44.7333 222.554 46.6933 222.074 48.64C221.781 48.5867 221.527 48.3733 221.314 48C221.101 47.76 220.941 47.5867 220.834 47.48C220.754 47.3733 220.647 47.2933 220.514 47.24ZM245.881 18.68C245.748 18.52 245.628 18.1867 245.521 17.68C245.415 17.1467 245.361 16.6933 245.361 16.32C246.055 16.3733 246.721 16.4267 247.361 16.48C248.001 16.5067 248.588 16.5333 249.121 16.56C249.521 15.76 249.948 14.9733 250.401 14.2C250.881 13.4 251.335 12.68 251.761 12.04C252.215 11.3733 252.628 10.8133 253.001 10.36C253.401 9.90667 253.708 9.61333 253.921 9.48C254.188 9.48 254.521 9.53333 254.921 9.64C255.348 9.72 255.775 9.84 256.201 10C256.628 10.1333 257.015 10.28 257.361 10.44C257.708 10.6 257.948 10.76 258.081 10.92C257.281 11.9333 256.588 12.88 256.001 13.76C255.441 14.6133 254.828 15.6 254.161 16.72C254.695 16.72 255.228 16.7067 255.761 16.68C256.321 16.6533 256.881 16.6133 257.441 16.56C257.575 16.6933 257.681 16.8667 257.761 17.08C257.841 17.2667 257.881 17.4667 257.881 17.68C256.575 18.16 254.988 18.4267 253.121 18.48C252.455 19.76 251.855 21.04 251.321 22.32C250.815 23.5733 250.375 24.7867 250.001 25.96C249.655 27.1333 249.375 28.24 249.161 29.28C248.975 30.32 248.881 31.2533 248.881 32.08C248.881 33.2533 249.321 33.9067 250.201 34.04C251.001 33.9333 251.761 33.7333 252.481 33.44C253.201 33.1467 253.841 32.7733 254.401 32.32C254.561 32.56 254.655 32.76 254.681 32.92C254.521 33.16 254.241 33.44 253.841 33.76C253.468 34.08 253.055 34.3867 252.601 34.68C252.148 35 251.708 35.2667 251.281 35.48C250.855 35.6933 250.535 35.8133 250.321 35.84C249.655 35.8133 248.988 35.6667 248.321 35.4C247.655 35.1333 247.041 34.8 246.481 34.4C245.948 34 245.508 33.56 245.161 33.08C244.815 32.5733 244.641 32.08 244.641 31.6C244.641 30.96 244.721 30.16 244.881 29.2C245.068 28.2133 245.321 27.1467 245.641 26C245.961 24.8533 246.335 23.6533 246.761 22.4C247.188 21.1467 247.655 19.9067 248.161 18.68H245.881ZM262.704 35.4C261.184 35.24 259.971 34.5733 259.064 33.4C258.157 32.2267 257.704 30.7333 257.704 28.92C257.704 27.8533 257.864 26.7467 258.184 25.6C258.504 24.4533 258.957 23.3467 259.544 22.28C260.131 21.1867 260.824 20.16 261.624 19.2C262.424 18.24 263.291 17.4133 264.224 16.72C265.691 15.6267 267.064 15.08 268.344 15.08C269.197 15.5333 270.037 16.48 270.864 17.92C270.997 17.92 271.117 17.92 271.224 17.92C271.331 17.8933 271.451 17.88 271.584 17.88C272.997 17.88 273.704 19.1333 273.704 21.64C273.704 23.32 273.424 24.92 272.864 26.44C272.331 27.9333 271.571 29.2933 270.584 30.52C269.624 31.7467 268.464 32.7867 267.104 33.64C265.771 34.4667 264.304 35.0533 262.704 35.4ZM264.744 22.8C264.291 23.4133 263.864 24.08 263.464 24.8C263.064 25.52 262.717 26.2533 262.424 27C262.131 27.72 261.904 28.4267 261.744 29.12C261.584 29.7867 261.504 30.3867 261.504 30.92C261.504 31.56 261.611 32.1733 261.824 32.76C262.037 33.3467 262.277 33.68 262.544 33.76C263.744 33.4933 264.837 33 265.824 32.28C266.837 31.5333 267.704 30.6133 268.424 29.52C269.171 28.4267 269.744 27.1867 270.144 25.8C270.571 24.4133 270.784 22.9333 270.784 21.36C270.784 20.6667 270.744 20.12 270.664 19.72C270.584 19.32 270.451 18.9733 270.264 18.68C269.091 19.0267 268.037 19.5867 267.104 20.36C266.197 21.1333 265.411 21.9467 264.744 22.8ZM275.08 33.2C275.213 32.4267 275.44 31.4133 275.76 30.16C276.107 28.88 276.507 27.5333 276.96 26.12C277.413 24.68 277.893 23.24 278.4 21.8C278.907 20.36 279.4 19.0667 279.88 17.92C280.227 17.0933 280.533 16.4533 280.8 16C281.067 15.52 281.36 15.12 281.68 14.8C282.053 14.8533 282.44 14.9467 282.84 15.08C283.24 15.2133 283.627 15.3733 284 15.56C284.373 15.7467 284.707 15.9467 285 16.16C285.293 16.3467 285.52 16.5333 285.68 16.72C284.96 17.5733 284.32 18.5467 283.76 19.64C283.227 20.7333 282.68 22.1333 282.12 23.84C283.56 22.56 284.827 21.3333 285.92 20.16C287.04 18.9867 288.08 17.68 289.04 16.24C289.2 16.1067 289.48 16.04 289.88 16.04C290.253 16.04 290.613 16.1067 290.96 16.24C291.307 16.3467 291.547 16.5067 291.68 16.72C291.2 18 290.96 19.2667 290.96 20.52C290.96 21.6933 291.133 22.5733 291.48 23.16C291.453 23.32 291.267 23.6267 290.92 24.08C290.6 24.5333 290.24 24.96 289.84 25.36C289.12 24.9867 288.48 24.48 287.92 23.84C287.36 23.1733 286.947 22.4533 286.68 21.68C285.427 22.56 284.36 23.4267 283.48 24.28C282.6 25.1067 281.84 26.04 281.2 27.08C280.587 28.0933 280.053 29.2667 279.6 30.6C279.173 31.9333 278.76 33.52 278.36 35.36C278.12 35.3333 277.827 35.24 277.48 35.08C277.16 34.9467 276.827 34.7733 276.48 34.56C276.16 34.3467 275.867 34.12 275.6 33.88C275.333 33.64 275.16 33.4133 275.08 33.2Z" fill="#FED136"/>
</svg>
